<?xml version="1.0" encoding="utf-8"?>
<!-- Generator: Adobe Illustrator 28.1.0, SVG Export Plug-In . SVG Version: 6.00 Build 0)  -->
<svg version="1.1" id="Capa_1" xmlns="http://www.w3.org/2000/svg" xmlns:xlink="http://www.w3.org/1999/xlink" x="0px" y="0px"
	 viewBox="0 0 974.7 576.46" style="enable-background:new 0 0 974.7 576.46;" xml:space="preserve">
<style type="text/css">
	.st0{opacity:0.5;fill:#E7FE00;}
	.st1{opacity:0.6;}
	.st2{fill:#E7FE00;}
</style>
<g>
	<g>
		<path class="st0" d="M288.03,0c12.82,1.39,27.54,2.76,42.19,4.63c35.6,4.55,68.66,16.97,100.23,33.54
			c7.73,4.06,14.94,9.3,21.87,14.66c12.41,9.59,24.78,19.3,36.49,29.72c7.23,6.44,13.58,13.99,19.67,21.57
			c8.39,10.43,16.51,21.13,24.1,32.15c6.09,8.85,10.65,18.76,16.9,27.47c8.39,11.69,17.84,22.62,26.68,34
			c9.1,11.72,20.95,18.92,35.27,22.35c9.96,2.38,20.02,2.32,29.84,0.06c20.57-4.74,40.87-10.75,61.54-14.96
			c15.4-3.14,31.07-4.42,47.04-2.78c18.45,1.89,35.94,6.52,52.37,14.77c19.87,9.98,36.75,23.86,51.18,40.91
			c13.19,15.58,24.41,32.33,32.9,50.88c7.11,15.53,11.49,31.71,13.09,48.84c2.09,22.31-1.16,43.77-8.13,64.8
			c-6.02,18.17-15.81,34.26-27.63,49.27c-15.05,19.1-33.24,34.56-54.06,46.79c-16.72,9.83-34.69,16.81-54.18,18.92
			c-8.67,0.94-17.4,2.04-26.08,1.9c-18.45-0.31-36.27-4.36-53.58-10.79c-26.47-9.84-49.43-25.55-71.97-42.16
			c-11.7-8.62-24.01-16.52-38.77-19.25c-12.47-2.3-24.49-0.31-35.2,5.95c-15.94,9.32-31.27,19.69-46.84,29.64
			c-19.43,12.42-38.64,25.2-58.33,37.2c-16.96,10.33-35.08,18.58-54.17,23.99c-14.54,4.12-29.47,7.4-44.45,9.32
			c-16.48,2.12-33.2,2.94-49.83,3.08c-22.55,0.19-44.68-3.85-66.36-9.95c-34.77-9.78-66.05-26.59-94.59-48.5
			c-9.02-6.92-17.24-14.9-25.74-22.49c-18.58-16.59-34.31-35.63-47.62-56.63c-16.29-25.71-27.97-53.3-34.96-83.12
			c-6.45-27.5-7.79-55.25-6.46-83.13c1.07-22.4,5.13-44.51,11.33-66.17c5.33-18.61,12.2-36.59,21.38-53.64
			c8.88-16.5,19.24-31.97,31.44-46.25c17.91-20.96,38.75-38.5,61.66-53.65c23.23-15.36,47.62-28.44,74.13-37.31
			c19.08-6.39,38.42-11.51,58.58-13.02C268.01,1.92,277.02,0.99,288.03,0z"/>
		<g class="st1">
			<path class="st2" d="M700.76,485.49c-7.1-4.58-15.32-9.7-23.35-15.1c-19.51-13.12-35.23-30.1-48.86-49.07
				c-3.34-4.65-6.02-9.83-8.5-15.01c-4.45-9.26-8.85-18.58-12.65-28.12c-2.35-5.89-3.84-12.18-5.19-18.41
				c-1.85-8.58-3.47-17.22-4.68-25.91c-0.97-6.97-0.73-14.11-1.83-21.05c-1.48-9.31-3.81-18.49-5.64-27.75
				c-1.89-9.54-6.71-17.24-14.09-23.44c-5.13-4.32-11.04-7.24-17.46-8.8c-13.44-3.27-27.09-5.71-40.44-9.31
				c-9.94-2.68-19.5-6.53-28.37-12.18c-10.25-6.53-19.13-14.38-26.33-24.03c-8.71-11.68-14.52-24.77-17.96-38.99
				c-3.15-13-4.8-26.11-4.33-39.46c0.4-11.18,2.58-21.95,6.67-32.45c5.33-13.68,13.53-25.29,23.79-35.57
				c8.86-8.88,19.32-15.42,30.65-20.74c14.42-6.77,29.62-10.48,45.4-11.53c12.68-0.84,25.25,0.34,37.29,4.83
				c5.35,2,10.79,3.91,15.83,6.55c10.72,5.6,19.97,13.2,28.21,22.05c12.61,13.54,21.45,29.48,29.77,45.83
				c4.32,8.49,9.21,16.73,17.06,22.66c6.63,5.01,14.26,7.37,22.36,6.85c12.07-0.77,24.1-2.35,36.14-3.6
				c15.03-1.57,30.03-3.41,45.09-4.66c12.96-1.07,26-0.58,38.77,1.86c9.73,1.86,19.43,4.32,28.77,7.59
				c10.27,3.6,20.31,8.03,30.09,12.83c13.26,6.51,25.04,15.38,35.94,25.31c17.49,15.94,30.87,34.97,41.16,56.18
				c3.25,6.7,5.72,13.79,8.47,20.73c6.01,15.17,9.64,30.94,11.26,47.15c1.99,19.84,0.73,39.43-3.93,58.94
				c-4.3,18-11.66,34.65-20.63,50.58c-7.2,12.8-16.08,24.56-26.07,35.43c-8.59,9.34-17.89,17.84-28.27,25.14
				c-10.05,7.06-20.66,13.08-31.99,17.86c-16.65,7.02-34,11.17-51.87,13.31c-18.12,2.18-36.24,2.67-54.38,0.08
				c-13.05-1.86-25.88-4.54-38.13-9.58C713.04,490.25,707.5,488.14,700.76,485.49z"/>
		</g>
	</g>
</g>
</svg>
